<svg xmlns="http://www.w3.org/2000/svg" width="927.356" height="184.97" viewBox="0 0 927.356 184.97"><path d="M203.851 81.63c9.79 0 16.39-4.4 19.14-12.65 1.21-3.41 1.54-6.49 1.54-25.74s-.33-22.33-1.54-25.74c-2.75-8.25-9.35-12.65-19.14-12.65s-16.39 4.4-19.14 12.65c-1.21 3.41-1.54 6.49-1.54 25.74s.33 22.33 1.54 25.74c2.75 8.25 9.35 12.65 19.14 12.65zm0-12.98a5.239 5.239 0 01-5.28-3.63c-.55-1.76-.77-3.63-.77-21.78s.22-20.02.77-21.78a5.239 5.239 0 015.28-3.63 5.239 5.239 0 015.28 3.63c.55 1.76.77 3.63.77 21.78s-.22 20.02-.77 21.78a5.239 5.239 0 01-5.28 3.63zm49.61 12.98c12.54 0 20.24-7.15 20.24-21.23V6.94a1.039 1.039 0 00-1.1-1.1h-12.21a1.039 1.039 0 00-1.1 1.1v55.22c0 3.96-2.09 6.49-5.83 6.49-3.63 0-5.72-2.53-5.72-6.49V6.94a1.039 1.039 0 00-1.1-1.1h-12.21a1.039 1.039 0 00-1.1 1.1V60.4c0 14.08 7.7 21.23 20.13 21.23zm72.27-.99c.55 0 .77-.55.55-1.1l-10.23-31.68c5.17-3.52 8.36-9.68 8.36-19.14 0-16.61-8.58-22.88-21.89-22.88h-17.82a1.039 1.039 0 00-1.1 1.1v72.6a1.039 1.039 0 001.1 1.1h12.21a1.039 1.039 0 001.1-1.1v-27.5a.583.583 0 01.66-.66h4.18l8.47 28.38a1.09 1.09 0 001.21.88zm-23.87-41.69h-3.19a.583.583 0 01-.66-.66V19.15a.583.583 0 01.66-.66h3.19c5.61 0 8.03 2.42 8.03 10.23 0 7.92-2.42 10.23-8.03 10.23zM.021 179.54a.843.843 0 00.88 1.1h12.21a1.131 1.131 0 001.21-1.1l2.53-13.53h14.19l2.42 13.53a1.131 1.131 0 001.21 1.1h12.21a.843.843 0 00.88-1.1l-16.06-72.6a1.2 1.2 0 00-1.21-1.1h-12.98c-.66 0-.99.44-1.21 1.1zm18.92-24.97l4.95-25.96h.33l4.73 25.96zm34.87 24.97a1.039 1.039 0 001.1 1.1h10.67a1.039 1.039 0 001.1-1.1v-43.23h.66l8.14 29.92a1.425 1.425 0 001.43 1.1h6.05a1.425 1.425 0 001.43-1.1l8.14-29.92h.66v43.23a1.039 1.039 0 001.1 1.1h10.67a1.039 1.039 0 001.1-1.1v-72.6a1.039 1.039 0 00-1.1-1.1h-11.77c-.99 0-1.54.33-1.76 1.1l-11 39.27h-.44l-11.44-39.27c-.22-.77-.77-1.1-1.76-1.1h-11.88a1.039 1.039 0 00-1.1 1.1zm58.3 0a.843.843 0 00.88 1.1h12.21a1.131 1.131 0 001.21-1.1l2.53-13.53h14.19l2.42 13.53a1.131 1.131 0 001.21 1.1h12.21a.843.843 0 00.88-1.1l-16.06-72.6a1.2 1.2 0 00-1.21-1.1h-12.98c-.66 0-.99.44-1.21 1.1zm18.92-24.97l4.95-25.96h.33l4.73 25.96zm67.32 26.07a1.039 1.039 0 001.1-1.1v-10.78a1.039 1.039 0 00-1.1-1.1h-18.7v-.22l19.58-48.95a3.254 3.254 0 00.22-1.1v-10.45a1.039 1.039 0 00-1.1-1.1h-31.9a1.039 1.039 0 00-1.1 1.1v10.78a1.039 1.039 0 001.1 1.1h17.71v.22l-19.58 49.06a3.228 3.228 0 00-.33 1.1v10.34a1.039 1.039 0 001.1 1.1zm9.57-1.1a1.039 1.039 0 001.1 1.1h12.21a1.039 1.039 0 001.1-1.1v-72.6a1.039 1.039 0 00-1.1-1.1h-12.21a1.039 1.039 0 00-1.1 1.1zm24.53 0a1.039 1.039 0 001.1 1.1h10.45a1.039 1.039 0 001.1-1.1v-46.97h.55l12.98 46.97a1.37 1.37 0 001.54 1.1h13.2a1.039 1.039 0 001.1-1.1v-72.6a1.039 1.039 0 00-1.1-1.1h-10.45a1.039 1.039 0 00-1.1 1.1v46.97h-.55l-12.43-46.97a1.37 1.37 0 00-1.54-1.1h-13.75a1.039 1.039 0 00-1.1 1.1zm52.47-10.45c2.75 8.14 9.24 12.54 19.25 12.54 9.79 0 16.28-4.4 19.03-12.65 1.21-3.41 1.54-6.49 1.54-25.74v-3.3a1.039 1.039 0 00-1.1-1.1h-18.15a1.039 1.039 0 00-1.1 1.1v9.68a1.039 1.039 0 001.1 1.1h4.73a.583.583 0 01.66.66c0 11-.22 12.1-.66 13.64-.66 2.2-2.97 3.63-5.72 3.63s-5.06-1.43-5.72-3.63c-.55-1.65-.66-2.64-.66-21.78 0-19.25.11-20.13.66-21.89a5.541 5.541 0 015.5-3.52c3.74 0 5.94 2.53 6.27 7.92.11.77.55 1.1 1.21.99l11.66-1.98a1.064 1.064 0 00.88-1.32c-.99-12.1-8.03-18.59-20.13-18.59-10.01 0-16.5 4.4-19.25 12.54-1.1 3.52-1.43 6.6-1.43 25.85s.33 22.33 1.43 25.85z" fill="#000002"/><path d="M466.33 129.055c0-30.475-9.54-43.725-34.185-53.265l-10.865-4.24c-14.045-5.565-16.96-9.805-16.96-23.32 0-12.19 4.505-18.02 13.78-18.02 9.54 0 14.045 6.625 14.31 19.61 0 1.59 1.325 2.385 2.915 2.12l27.03-4.24a2.673 2.673 0 002.385-2.915C463.415 16.43 448.575 0 417.04 0c-32.065 0-47.7 17.49-47.7 50.085 0 28.885 8.745 42.4 34.185 52.205l10.865 4.24c13.515 5.3 16.7 10.865 16.7 26.765 0 16.43-4.505 21.465-14.31 21.465-10.335 0-15.1-6.625-15.635-23.32 0-1.59-1.06-2.385-2.915-2.12l-28.36 4.505c-1.59.265-2.12 1.325-2.12 2.915.53 31.005 16.165 48.23 48.76 48.23 35.775 0 49.82-19.085 49.82-55.915zm75.79 53.53a2.5 2.5 0 002.65-2.65V35.245a1.405 1.405 0 011.59-1.59h28.355a2.5 2.5 0 002.65-2.65V5.035a2.5 2.5 0 00-2.65-2.65H480.11a2.5 2.5 0 00-2.65 2.65v25.97a2.5 2.5 0 002.65 2.65h28.35a1.405 1.405 0 011.59 1.59v144.69a2.5 2.5 0 002.65 2.65zm97.52 2.385c23.585 0 39.485-10.6 46.11-30.475 2.915-8.215 3.71-15.635 3.71-62.01s-.8-53.8-3.71-62.01C679.125 10.6 663.225 0 639.64 0s-39.485 10.6-46.11 30.475c-2.915 8.215-3.71 15.635-3.71 62.01s.795 53.795 3.71 62.01c6.625 19.875 22.525 30.475 46.11 30.475zm0-31.27c-6.625 0-11.13-3.71-12.72-8.745-1.325-4.24-1.855-8.745-1.855-52.47s.53-48.23 1.855-52.47c1.59-5.035 6.1-8.745 12.72-8.745s11.13 3.71 12.72 8.745c1.325 4.24 1.855 8.745 1.855 52.47s-.53 48.23-1.855 52.47c-1.59 5.03-6.1 8.745-12.72 8.745zm177.02 28.885c1.325 0 1.855-1.325 1.325-2.65l-24.645-76.32c12.455-8.48 20.14-23.32 20.14-46.11 0-40.015-20.67-55.12-52.735-55.12h-42.93a2.5 2.5 0 00-2.65 2.65v174.9a2.5 2.5 0 002.65 2.65h29.415a2.5 2.5 0 002.65-2.65v-66.25a1.405 1.405 0 011.59-1.59h10.07l20.4 68.37a2.626 2.626 0 002.92 2.12zM759.155 82.15h-7.685a1.405 1.405 0 01-1.59-1.59V34.45a1.405 1.405 0 011.59-1.59h7.685c13.515 0 19.345 5.83 19.345 24.645 0 19.08-5.83 24.645-19.345 24.645zm130.38 100.435a2.5 2.5 0 002.65-2.65v-68.9l34.98-106c.53-1.59 0-2.65-2.12-2.65H896.16c-1.855 0-2.65.795-3.18 2.65L876.02 71.02h-1.06L857.205 5.035c-.265-1.855-1.325-2.65-3.18-2.65H824.61c-2.12 0-2.65 1.06-2.12 2.65l34.98 106v68.9a2.5 2.5 0 002.65 2.65z" fill="#fdb913"/></svg>